HIERARCHY
ROOT Hips
{
 OFFSET 0.000000 0.000000 0.000000
 CHANNELS 6 Xposition Yposition Zposition Yrotation Xrotation Zrotation
 JOINT Chest
 {
  OFFSET 0.000000 9.585900 0.002600
  CHANNELS 3 Yrotation Xrotation Zrotation
  JOINT Chest2
  {
   OFFSET 0.000000 9.601200 -0.005300
   CHANNELS 3 Yrotation Xrotation Zrotation
   JOINT Chest3
   {
    OFFSET 0.000000 9.561800 0.000000
    CHANNELS 3 Yrotation Xrotation Zrotation
    JOINT Chest4
    {
     OFFSET 0.000000 9.552100 0.000000
     CHANNELS 3 Yrotation Xrotation Zrotation
     JOINT Neck
     {
      OFFSET 0.000000 14.453000 0.000000
      CHANNELS 3 Yrotation Xrotation Zrotation
      JOINT Head
      {
       OFFSET 0.000000 8.936500 -0.011300
       CHANNELS 3 Yrotation Xrotation Zrotation
       End Site
       {
        OFFSET 0.000000 17.073600 -0.006000
       }
      }
     }
     JOINT RightCollar
     {
      OFFSET -2.921100 9.558500 0.000000
      CHANNELS 3 Yrotation Xrotation Zrotation
      JOINT RightShoulder
      {
       OFFSET -13.519700 0.000000 0.000000
       CHANNELS 3 Yrotation Xrotation Zrotation
       JOINT RightElbow
       {
        OFFSET 0.000000 -29.696600 0.000000
        CHANNELS 3 Yrotation Xrotation Zrotation
        JOINT RightWrist
        {
         OFFSET 0.000000 -24.004700 0.000000
         CHANNELS 3 Yrotation Xrotation Zrotation
         End Site
         {
          OFFSET 0.000000 -17.728500 0.000000
         }
        }
       }
      }
     }
     JOINT LeftCollar
     {
      OFFSET 2.921100 9.558500 0.000000
      CHANNELS 3 Yrotation Xrotation Zrotation
      JOINT LeftShoulder
      {
       OFFSET 13.519700 0.000000 0.000000
       CHANNELS 3 Yrotation Xrotation Zrotation
       JOINT LeftElbow
       {
        OFFSET 0.000000 -29.696600 0.000000
        CHANNELS 3 Yrotation Xrotation Zrotation
        JOINT LeftWrist
        {
         OFFSET 0.000000 -24.004700 0.000000
         CHANNELS 3 Yrotation Xrotation Zrotation
         End Site
         {
          OFFSET 0.000000 -17.728500 0.000000
         }
        }
       }
      }
     }
    }
   }
  }
 }
 JOINT RightHip
 {
  OFFSET -7.771700 -0.012900 -0.001300
  CHANNELS 3 Yrotation Xrotation Zrotation
  JOINT RightKnee
  {
   OFFSET 0.000000 -40.869800 0.001200
   CHANNELS 3 Yrotation Xrotation Zrotation
   JOINT RightAnkle
   {
    OFFSET 0.000000 -39.717900 0.002100
    CHANNELS 3 Yrotation Xrotation Zrotation
    JOINT RightToe
    {
     OFFSET 0.000000 -4.965400 11.033500
     CHANNELS 3 Yrotation Xrotation Zrotation
     End Site
     {
      OFFSET 0.000000 -1.423100 5.872300
     }
    }
   }
  }
 }
 JOINT LeftHip
 {
  OFFSET 7.771700 -0.012900 -0.001300
  CHANNELS 3 Yrotation Xrotation Zrotation
  JOINT LeftKnee
  {
   OFFSET 0.000000 -40.869800 0.001200
   CHANNELS 3 Yrotation Xrotation Zrotation
   JOINT LeftAnkle
   {
    OFFSET 0.000000 -39.717900 0.002100
    CHANNELS 3 Yrotation Xrotation Zrotation
    JOINT LeftToe
    {
     OFFSET 0.000000 -4.965400 11.033500
     CHANNELS 3 Yrotation Xrotation Zrotation
     End Site
     {
      OFFSET 0.000000 -1.423100 5.872300
     }
    }
   }
  }
 }
}
MOTION
Frames: 11
Frame Time: 0.008333
21.780944 50.036758 58.445640 174.523906 -32.995652 -6.855035 7.112602 21.793791 7.569552 0.920183 3.286345 0.824899 1.491954 5.265479 1.337701 5.956231 18.329180 5.464315 -2.845723 16.858068 0.808769 -5.533137 -4.454578 2.474799 -2.274167 -2.926563 -5.815900 11.939450 -5.801316 -4.016552 175.058750 -65.883713 -175.938981 3.936225 -4.538599 32.339735 -11.631630 -0.299015 0.607682 1.247464 -9.986752 0.541858 169.838367 -63.827195 -173.047955 21.090853 6.548683 -32.311768 -1.224601 -47.074533 9.834818 -122.538628 83.995449 -110.223135 -2.689484 -13.651275 -4.631684 -0.017622 0.921640 0.031023 -9.785393 -51.406788 14.799193 -157.032971 81.181108 -164.313658 0.899588 -16.942948 7.113988 -0.188331 -0.472241 -0.176489
21.790622 50.035953 58.453045 174.521539 -33.048629 -6.816602 7.123470 21.867028 7.555936 0.922793 3.299274 0.825521 1.517834 5.333523 1.357470 5.980795 18.390648 5.471070 -2.874679 16.834355 0.805221 -5.592572 -4.466744 2.481543 -2.275079 -2.906007 -5.802934 11.970802 -5.749054 -4.045537 175.391808 -65.944715 -176.237979 3.853547 -4.569724 32.260414 -11.641287 -0.291215 0.603966 1.238617 -10.042031 0.608380 170.073573 -63.830215 -173.271342 21.037700 6.433366 -32.339504 -1.199138 -47.037077 9.819720 -122.481396 83.955489 -110.192486 -2.654896 -13.642141 -4.631977 -0.044176 0.917125 0.026539 -9.775107 -51.358592 14.735263 -156.905486 81.191510 -164.175197 0.939950 -16.914472 7.074281 -0.171756 -0.485062 -0.162829
21.799910 50.037030 58.458849 174.514997 -33.118191 -6.774026 7.161444 21.988229 7.579945 0.906108 3.277218 0.794381 1.531860 5.372092 1.368843 6.006346 18.466561 5.482822 -2.901676 16.783839 0.796766 -5.637436 -4.462722 2.473646 -2.279086 -2.885302 -5.786917 12.007153 -5.701697 -4.063236 175.762129 -66.022789 -176.558503 3.779995 -4.610270 32.217184 -11.648376 -0.282802 0.601655 1.241430 -10.066583 0.662695 170.217548 -63.824026 -173.416126 20.980473 6.350211 -32.372120 -1.155311 -46.976605 9.783356 -122.388720 83.914067 -110.116203 -2.592663 -13.646621 -4.622934 -0.064939 0.924665 0.009026 -9.865702 -51.273990 14.743357 -156.827876 81.207342 -164.157155 0.990937 -16.885917 7.023241 -0.167363 -0.503526 -0.140967
21.809594 50.038538 58.465524 174.503741 -33.187411 -6.735462 7.177105 22.073052 7.577928 0.921969 3.310242 0.800147 1.516424 5.346717 1.350124 6.039008 18.568050 5.506970 -2.920296 16.757981 0.786299 -5.660583 -4.529664 2.474698 -2.283930 -2.860844 -5.768075 12.049031 -5.656859 -4.072448 176.149312 -66.110683 -176.891574 3.720192 -4.655950 32.213895 -11.650868 -0.267857 0.598760 1.247029 -10.062200 0.704208 170.262382 -63.814961 -173.471244 20.916895 6.306053 -32.411242 -1.115298 -46.916132 9.754497 -122.283644 83.873311 -110.026263 -2.523584 -13.649263 -4.620427 -0.094697 0.932053 0.000786 -9.847625 -51.200872 14.706644 -156.768849 81.222803 -164.116513 1.001635 -16.868397 7.026459 -0.151955 -0.511638 -0.142017
21.816498 50.039330 58.473845 174.496816 -33.245806 -6.689481 7.178147 22.140894 7.559458 0.928058 3.343285 0.805412 1.524816 5.381792 1.353828 6.040914 18.598414 5.496320 -2.931880 16.755705 0.775021 -5.678438 -4.603525 2.477336 -2.290093 -2.861261 -5.753303 12.094287 -5.584204 -4.058603 176.527756 -66.202887 -177.216084 3.679507 -4.703189 32.241169 -11.650948 -0.243495 0.596083 1.254377 -10.031710 0.735041 170.185054 -63.799999 -173.418001 20.843477 6.316008 -32.458924 -1.076567 -46.867995 9.724186 -122.141147 83.826240 -109.903204 -2.504291 -13.657446 -4.609076 -0.120831 0.941145 -0.012201 -9.908782 -51.128154 14.693666 -156.764715 81.250177 -164.162139 1.043231 -16.849879 6.991586 -0.152643 -0.515160 -0.145807
21.824823 50.039521 58.485001 174.490876 -33.289540 -6.662091 7.178694 22.186673 7.553559 0.937884 3.382080 0.825099 1.535522 5.436615 1.357129 6.021310 18.590517 5.462197 -2.939855 16.718308 0.764943 -5.698085 -4.624622 2.458700 -2.293320 -2.829854 -5.727147 12.131063 -5.535410 -4.046385 176.872202 -66.293440 -177.503392 3.664316 -4.745515 32.284597 -11.648139 -0.212188 0.593669 1.272210 -9.979756 0.757428 169.964319 -63.779452 -173.241240 20.762587 6.392113 -32.522997 -1.059503 -46.835484 9.715336 -122.015248 83.790442 -109.794439 -2.477731 -13.649866 -4.599395 -0.145596 0.938772 -0.031955 -9.900972 -51.082166 14.655444 -156.848471 81.278409 -164.243118 1.053417 -16.837562 6.965578 -0.148232 -0.509820 -0.143511
21.834705 50.037789 58.501158 174.484590 -33.302881 -6.656161 7.180887 22.198246 7.560692 0.937008 3.393781 0.826781 1.538178 5.457159 1.356502 6.021647 18.612912 5.452296 -2.939872 16.680218 0.761521 -5.724716 -4.660021 2.409243 -2.297389 -2.753532 -5.690834 12.158094 -5.511374 -4.037456 177.164381 -66.375153 -177.735331 3.676123 -4.773124 32.333850 -11.645519 -0.164916 0.587146 1.307320 -9.912245 0.774855 169.618484 -63.758990 -172.961199 20.679351 6.517962 -32.612891 -1.071950 -46.833627 9.744401 -121.869661 83.770061 -109.670374 -2.461625 -13.674751 -4.576421 -0.192793 0.978591 -0.055686 -9.947471 -51.057737 14.676929 -156.925336 81.311975 -164.326738 1.050158 -16.829469 6.951101 -0.164338 -0.498770 -0.146335
21.833044 50.040205 58.508757 174.451986 -33.369208 -6.572036 7.190096 22.268153 7.500540 0.935016 3.397927 0.828410 1.539154 5.466232 1.355822 6.014779 18.648485 5.443579 -2.939410 16.662461 0.749358 -5.723526 -4.703671 2.404677 -2.300511 -2.713304 -5.660340 12.181208 -5.459243 -4.007843 177.403638 -66.443651 -177.912775 3.716673 -4.778723 32.375734 -11.635615 -0.164722 0.589188 1.357864 -9.793075 0.781647 169.207670 -63.736991 -172.634717 20.599308 6.657088 -32.727639 -0.989337 -46.793873 9.671549 -121.963624 83.754545 -109.784280 -2.487654 -13.614183 -4.590301 -0.147315 0.919344 -0.037229 -9.849488 -50.987244 14.561309 -157.207613 81.362168 -164.605608 0.980214 -16.826190 6.922772 -0.131853 -0.482190 -0.118933
21.833302 50.042323 58.518951 174.430235 -33.420375 -6.517421 7.186105 22.316379 7.464526 0.940919 3.406863 0.823994 1.539991 5.474404 1.354927 6.000593 18.685543 5.431151 -2.932788 16.626681 0.735368 -5.723336 -4.773272 2.378106 -2.294257 -2.699436 -5.635689 12.195142 -5.449313 -4.001971 177.682334 -66.558888 -178.132079 3.786914 -4.761268 32.398740 -11.619844 -0.165536 0.591493 1.420456 -9.673991 0.784466 168.797890 -63.710727 -172.314623 20.526079 6.786236 -32.863581 -0.929619 -46.758053 9.618978 -121.999655 83.751308 -109.826016 -2.505733 -13.612667 -4.596458 -0.091300 0.920143 -0.035366 -9.769280 -50.930152 14.478773 -157.391294 81.406311 -164.781460 0.929313 -16.821901 6.913618 -0.124734 -0.468493 -0.105599
21.837585 50.042482 58.534781 174.379034 -33.440312 -6.484014 7.217556 22.323060 7.465839 0.940996 3.415392 0.822291 1.524377 5.490647 1.353958 6.001511 18.696766 5.410293 -2.947945 16.573054 0.705682 -5.707995 -4.904091 2.341151 -2.278607 -2.702742 -5.624930 12.201081 -5.404654 -3.974687 177.911332 -66.655162 -178.307743 3.873714 -4.723423 32.402568 -11.605262 -0.111662 0.576886 1.485368 -9.595324 0.794196 168.443025 -63.683455 -172.036390 20.454759 6.894282 -33.019110 -0.892115 -46.756461 9.625122 -121.947194 83.778616 -109.764036 -2.602054 -13.625759 -4.581756 -0.194605 0.939080 -0.066072 -9.691327 -50.901790 14.448320 -157.517074 81.447194 -164.890093 0.911248 -16.829885 6.915307 -0.136442 -0.447699 -0.103675
21.837253 50.044819 58.546818 174.350744 -33.480591 -6.442231 7.217850 22.353812 7.440890 0.940757 3.422239 0.820831 1.525085 5.492547 1.349626 5.996187 18.713055 5.397803 -2.935085 16.550097 0.704615 -5.701154 -5.023238 2.318434 -2.303126 -2.607118 -5.576917 12.223357 -5.305317 -3.898274 177.875891 -66.594182 -178.195513 3.957725 -4.677176 32.386992 -11.596423 -0.054071 0.565508 1.547217 -9.520532 0.795696 168.183421 -63.656391 -171.828941 20.378268 6.974440 -33.182357 -0.853301 -46.730211 9.601199 -121.955175 83.794893 -109.774482 -2.672401 -13.612491 -4.571893 -0.223884 0.928748 -0.078559 -9.599157 -50.860464 14.382523 -157.625299 81.482557 -164.985704 0.878998 -16.823795 6.913749 -0.140922 -0.439924 -0.087279
